<svg width="20" height="20" viewBox="0 0 20 20" fill="none" xmlns="http://www.w3.org/2000/svg">
<circle cx="9.99975" cy="9.70874" r="9.70874" fill="#151875"/>
<path d="M14.8463 7.30046C14.841 6.9083 14.7676 6.52003 14.6293 6.15302C14.5093 5.84346 14.3261 5.56232 14.0914 5.32756C13.8566 5.09281 13.5755 4.9096 13.2659 4.78966C12.9036 4.65366 12.5209 4.58012 12.134 4.57218C11.6359 4.54991 11.478 4.5437 10.2135 4.5437C8.94904 4.5437 8.78697 4.5437 8.29247 4.57218C7.90576 4.58018 7.5232 4.65372 7.16108 4.78966C6.85146 4.90952 6.57028 5.0927 6.33552 5.32746C6.10075 5.56222 5.91758 5.84341 5.79771 6.15302C5.66144 6.51503 5.58807 6.89767 5.58075 7.28441C5.55849 7.78305 5.55176 7.94098 5.55176 9.20545C5.55176 10.4699 5.55176 10.6315 5.58075 11.1265C5.58852 11.5138 5.66153 11.8959 5.79771 12.2589C5.91778 12.5684 6.10109 12.8495 6.33593 13.0842C6.57077 13.3188 6.85198 13.5019 7.1616 13.6218C7.52273 13.7632 7.90535 13.842 8.29299 13.8548C8.79163 13.877 8.94956 13.8838 10.214 13.8838C11.4785 13.8838 11.6406 13.8838 12.1351 13.8548C12.5219 13.8472 12.9047 13.7738 13.267 13.6378C13.5765 13.5177 13.8575 13.3345 14.0923 13.0997C14.327 12.865 14.5102 12.5839 14.6303 12.2744C14.7665 11.912 14.8395 11.5298 14.8473 11.142C14.8696 10.6439 14.8763 10.486 14.8763 9.22098C14.8753 7.95652 14.8753 7.796 14.8463 7.30046V7.30046ZM10.2104 11.5966C8.88794 11.5966 7.81661 10.5253 7.81661 9.20286C7.81661 7.8804 8.88794 6.80907 10.2104 6.80907C10.8453 6.80907 11.4541 7.06128 11.9031 7.5102C12.352 7.95912 12.6042 8.56799 12.6042 9.20286C12.6042 9.83773 12.352 10.4466 11.9031 10.8955C11.4541 11.3444 10.8453 11.5966 10.2104 11.5966V11.5966ZM12.6995 7.27872C12.3903 7.27872 12.1413 7.02914 12.1413 6.72053C12.1413 6.64726 12.1557 6.57471 12.1837 6.50702C12.2118 6.43933 12.2529 6.37782 12.3047 6.32601C12.3565 6.27421 12.418 6.23311 12.4857 6.20507C12.5534 6.17703 12.6259 6.1626 12.6992 6.1626C12.7725 6.1626 12.845 6.17703 12.9127 6.20507C12.9804 6.23311 13.0419 6.27421 13.0937 6.32601C13.1455 6.37782 13.1866 6.43933 13.2147 6.50702C13.2427 6.57471 13.2571 6.64726 13.2571 6.72053C13.2571 7.02914 13.0076 7.27872 12.6995 7.27872Z" fill="white"/>
<path d="M10.2102 10.7575C11.069 10.7575 11.7652 10.0613 11.7652 9.20253C11.7652 8.34376 11.069 7.64758 10.2102 7.64758C9.35145 7.64758 8.65527 8.34376 8.65527 9.20253C8.65527 10.0613 9.35145 10.7575 10.2102 10.7575Z" fill="white"/>
</svg>
